<svg xmlns="http://www.w3.org/2000/svg" viewBox="0 0 200 130" fill="none">

  <!-- Left wing — upper surface -->
  <path d="M100 65 C82 42 52 26 12 32 C40 38 74 54 100 65Z"
        fill="#6D2B3D"/>

  <!-- Left wing — lower feather layer -->
  <path d="M100 65 C80 58 48 52 12 56 C42 52 76 60 100 65Z"
        fill="#8B3A50"/>

  <!-- Right wing — upper surface -->
  <path d="M100 65 C118 42 148 26 188 32 C160 38 126 54 100 65Z"
        fill="#6D2B3D"/>

  <!-- Right wing — lower feather layer -->
  <path d="M100 65 C120 58 152 52 188 56 C158 52 124 60 100 65Z"
        fill="#8B3A50"/>

  <!-- Body -->
  <ellipse cx="100" cy="67" rx="11" ry="7" fill="#4A1828"/>

  <!-- Tail — forked -->
  <path d="M92 71 C86 84 79 94 73 102 C81 92 89 80 94 72Z"
        fill="#4A1828"/>
  <path d="M94 72 C92 86 91 97 94 105 C95 96 96 84 96 73Z"
        fill="#6D2B3D"/>

  <!-- Head -->
  <circle cx="110" cy="60" r="7" fill="#4A1828"/>

  <!-- Beak -->
  <path d="M116 58 L127 60.5 L116 63Z" fill="#F2A07B"/>

  <!-- Eye -->
  <circle cx="111" cy="59" r="2" fill="#FAF6F0"/>
  <circle cx="111.5" cy="58.8" r="0.7" fill="#2C1A12"/>

  <!-- Peach wing-tip accent -->
  <path d="M100 65 C80 55 50 44 18 46 C44 46 74 56 100 65Z"
        fill="#F2A07B" opacity="0.25"/>
  <path d="M100 65 C120 55 150 44 182 46 C156 46 126 56 100 65Z"
        fill="#F2A07B" opacity="0.25"/>

</svg>
